<?xml version="1.0" standalone="no"?><!DOCTYPE svg PUBLIC "-//W3C//DTD SVG 1.1//EN" "http://www.w3.org/Graphics/SVG/1.1/DTD/svg11.dtd"><svg width="17.53125" height="16" viewBox="0 0 17.53125 16" version="1.1" xmlns="http://www.w3.org/2000/svg" xmlns:xlink="http://www.w3.org/1999/xlink"><defs><style type="text/css"><![CDATA[
@font-face {
  font-family: "ifont";
  src: url("//at.alicdn.com/t/font_1442373896_4754455.eot?#iefix") format("embedded-opentype"), url("//at.alicdn.com/t/font_1442373896_4754455.woff") format("woff"), url("//at.alicdn.com/t/font_1442373896_4754455.ttf") format("truetype"), url("//at.alicdn.com/t/font_1442373896_4754455.svg#ifont") format("svg");
}

]]></style></defs><g class="transform-group"><g transform="scale(0.015625, 0.015625)"><path d="M2.198036 146.677641l-1.108241-16.882506-1.089821 17.302061 0.491187 7.79043 0 18.251689 0.024559 0.599657c0.010233 0.249687 0.25378 6.132674 0.581238 6.39464 0.007163 0.00614 0.013303 0.008186 0.020466 0.008186 0.321318 0 0.528026-6.009877 0.537236-6.271844l0.020466-0.592494 0-18.215874L2.198036 146.677641 2.198036 146.677641zM1.090819 134.228097l0.822738 12.538571-0.823761 13.1853-0.809435-12.856819L1.090819 134.228097 1.090819 134.228097zM1.54926 171.46314c-0.055259 1.357927-0.223081 4.848425-0.450255 4.680603-0.231267-0.185218-0.419556-3.669576-0.484024-5.033643L0.614981 156.865677l0.474814 7.544837 0.459464-7.354502L1.54926 171.46314 1.54926 171.46314zM1.54926 171.46314M959.30144 765.605975c1.334391 4.000104-5.340635 8.004301-8.009418 10.674107L767.095883 957.808462l-4.004197 2.669806 0 0-10.679223 0L719.042448 960.478268 719.042448 765.605975c0-26.698059 21.35947-48.053436 48.053436-48.053436l193.540971 0L959.30144 765.605975 959.30144 765.605975 959.30144 765.605975zM791.11902 765.605975c-13.344936 0-24.02416 10.674107-24.02416 24.02416l0 98.771561 122.795721-122.795721L791.11902 765.605975 791.11902 765.605975zM476.118766 887.066281l0-24.02416 145.487535 0 0 24.02416L476.118766 887.066281 476.118766 887.066281zM440.079968 863.042121c6.675026 0 12.013615 5.340635 12.013615 12.010545 0 6.675026-5.338588 12.013615-12.013615 12.013615-6.66991 0-12.010545-5.338588-12.010545-12.013615C428.070447 868.381733 433.405965 863.042121 440.079968 863.042121L440.079968 863.042121zM428.06533 657.486512c0-6.66991 5.340635-12.010545 12.014638-12.010545l217.566154 0c6.675026 0 12.009522 5.339612 12.009522 12.010545l0 24.028253c0 6.675026-5.338588 12.010545-12.009522 12.010545L440.079968 693.52531c-6.675026 0-12.010545-5.339612-12.010545-12.010545l0-24.028253L428.06533 657.486512zM779.110521 306.446437 440.079968 306.446437c-6.675026 0-12.010545-5.339612-12.010545-12.010545l0-24.028253c0-6.66991 5.340635-12.010545 12.010545-12.010545L779.110521 258.397095c6.675026 0 12.009522 5.340635 12.009522 12.010545l0 24.028253C791.11902 301.106826 785.784524 306.446437 779.110521 306.446437L779.110521 306.446437zM791.11902 487.973794c0 6.675026-5.338588 12.013615-12.009522 12.013615L440.079968 499.987409c-6.675026 0-12.010545-5.338588-12.010545-12.013615l0-24.025183c0-6.675026 5.340635-12.013615 12.010545-12.013615L779.110521 451.934996c6.675026 0 12.009522 5.338588 12.009522 12.013615L791.120043 487.973794 791.11902 487.973794 791.11902 487.973794zM912.584442 160.957879c0-26.693965-21.35947-48.047296-48.052412-48.047296l-508.542248 0c-26.693965 0-48.048319 21.35333-48.048319 48.047296l0 702.084243c0 26.693965 21.354354 48.048319 48.048319 48.048319L719.042448 911.090441l0 48.051389L355.988758 959.14183c-53.388954 0-97.436146-42.712801-97.436146-97.436146L258.552612 160.957879c0-53.387931 44.047192-97.436146 97.436146-97.436146l507.207857 0c53.392024 0 97.439216 42.713824 97.439216 97.436146l0 556.595684-48.052412 0L912.583419 160.957879 912.584442 160.957879 912.584442 160.957879zM912.584442 160.957879" fill="#272636"></path></g></g></svg>