<?xml version="1.0" standalone="no"?><!DOCTYPE svg PUBLIC "-//W3C//DTD SVG 1.1//EN" "http://www.w3.org/Graphics/SVG/1.1/DTD/svg11.dtd"><svg class="icon" style="" viewBox="0 0 1024 1024" version="1.1" xmlns="http://www.w3.org/2000/svg" p-id="2670" xmlns:xlink="http://www.w3.org/1999/xlink" width="200" height="200"><defs><style type="text/css"><![CDATA[

]]></style></defs><path d="M0 0l0 396.8 371.2 0L371.2 0 0 0zM313.6 339.2l-256 0L57.6 57.6l256 0L313.6 339.2z" p-id="2671" fill="#fff"></path><path d="M652.8 0l0 396.8L1024 396.8 1024 0 652.8 0zM966.4 339.2l-256 0L710.4 57.6l256 0L966.4 339.2z" p-id="2672" fill="#fff"></path><path d="M0 627.2 0 1024l371.2 0L371.2 627.2 0 627.2zM313.6 966.4l-256 0 0-281.6 256 0L313.6 966.4z" p-id="2673" fill="#fff"></path><path d="M0 486.4l198.4 0 0 57.6L0 544 0 486.4z" p-id="2674" fill="#fff"></path><path d="M825.6 486.4 1024 486.4l0 57.6-198.4 0L825.6 486.4z" p-id="2675" fill="#fff"></path><path d="M486.4 313.6 486.4 486.4 339.2 486.4 339.2 537.6 486.4 537.6 486.4 684.8 537.6 684.8 537.6 313.6Z" p-id="2676" fill="#fff"></path><path d="M486.4 0l57.6 0 0 172.8L486.4 172.8 486.4 0z" p-id="2677" fill="#fff"></path><path d="M486.4 851.2l57.6 0L544 1024 486.4 1024 486.4 851.2z" p-id="2678" fill="#fff"></path><path d="M966.4 627.2 966.4 966.4 652.8 966.4 652.8 1024 1024 1024 1024 627.2Z" p-id="2679" fill="#fff"></path><path d="M851.2 627.2 652.8 627.2 652.8 825.6 710.4 825.6 710.4 684.8 851.2 684.8Z" p-id="2680" fill="#fff"></path></svg>