<?xml version="1.0" standalone="no"?><!DOCTYPE svg PUBLIC "-//W3C//DTD SVG 1.1//EN" "http://www.w3.org/Graphics/SVG/1.1/DTD/svg11.dtd"><svg class="icon" style="" viewBox="0 0 1024 1024" version="1.1" xmlns="http://www.w3.org/2000/svg" p-id="4133" xmlns:xlink="http://www.w3.org/1999/xlink" width="64" height="64"><defs><style type="text/css"><![CDATA[

]]></style></defs><path d="M524.8 896c-7.68 0-15.36-2.56-20.48-10.24L386.56 742.4 192 742.4c-28.16 0-51.2-23.04-51.2-51.2L140.8 179.2c0-28.16 23.04-51.2 51.2-51.2l665.6 0c28.16 0 51.2 23.04 51.2 51.2l0 512c0 28.16-23.04 51.2-51.2 51.2L665.6 742.4l-120.32 143.36C540.16 893.44 532.48 896 524.8 896zM192 179.2l0 512 204.8 0c7.68 0 15.36 2.56 20.48 10.24l107.52 130.56 107.52-130.56c5.12-5.12 12.8-10.24 20.48-10.24l204.8 0L857.6 179.2 192 179.2z" p-id="4134" fill="#fff"></path><path d="M716.8 371.2 332.8 371.2c-15.36 0-25.6-10.24-25.6-25.6s10.24-25.6 25.6-25.6l384 0c15.36 0 25.6 10.24 25.6 25.6S732.16 371.2 716.8 371.2z" p-id="4135" fill="#fff"></path><path d="M665.6 448 384 448c-15.36 0-25.6-10.24-25.6-25.6s10.24-25.6 25.6-25.6l281.6 0c15.36 0 25.6 10.24 25.6 25.6S680.96 448 665.6 448z" p-id="4136" fill="#fff"></path><path d="M614.4 524.8l-179.2 0c-15.36 0-25.6-10.24-25.6-25.6s10.24-25.6 25.6-25.6l179.2 0c15.36 0 25.6 10.24 25.6 25.6S629.76 524.8 614.4 524.8z" p-id="4137" fill="#fff"></path></svg>