<?xml version="1.0" standalone="no"?><!DOCTYPE svg PUBLIC "-//W3C//DTD SVG 1.1//EN" "http://www.w3.org/Graphics/SVG/1.1/DTD/svg11.dtd"><svg width="68.6875" height="64" viewBox="0 0 68.6875 64" version="1.1" xmlns="http://www.w3.org/2000/svg" xmlns:xlink="http://www.w3.org/1999/xlink"><defs><style type="text/css"><![CDATA[
@font-face {
  font-family: "ifont";
  src: url("//at.alicdn.com/t/font_1442373896_4754455.eot?#iefix") format("embedded-opentype"), url("//at.alicdn.com/t/font_1442373896_4754455.woff") format("woff"), url("//at.alicdn.com/t/font_1442373896_4754455.ttf") format("truetype"), url("//at.alicdn.com/t/font_1442373896_4754455.svg#ifont") format("svg");
}

]]></style></defs><g class="transform-group"><g transform="scale(0.0625, 0.0625)"><path d="M593.122567 4.495921C576.283484-3.354732 556.486184-0.737848 542.263985 11.095022L267.718665 239.617307 48.924363 238.707087 48.696808 238.707087c-12.572423 0-24.689737 5.006214-33.621277 13.880866C6.087101 261.519493 0.967109 273.636806 0.967109 286.379896L0 737.394255c0 12.74309 5.006214 24.917292 13.880866 33.905721 8.931541 8.988429 21.105743 14.051532 33.848832 14.051532l221.411187 0 273.179989 227.612065C551.024859 1020.188451 562.004397 1024 572.927045 1024c6.826655 0 13.767088-1.535997 20.195522-4.551104 16.839083-7.793765 27.477288-24.632848 27.477288-43.178595L620.599855 47.731405C620.599855 29.185658 609.904761 12.403464 593.122567 4.495921L593.122567 4.495921 593.122567 4.495921 593.122567 4.495921zM778.181814 243.201301c-23.495072-11.150204-51.484359-0.967109-62.975895 22.414185-11.434648 23.495072-1.535997 51.939469 21.788408 63.715449 3.015106 1.592886 74.581209 38.741269 74.581209 144.611315 0 113.038034-66.901222 219.647634-69.119885 220.899187-23.60885 11.832869-33.166167 40.56171-21.390187 64.056782 8.419542 16.839083 25.258625 26.453289 42.837262 26.453289 7.111099 0 14.449754-1.592886 21.21952-5.006214 5.006214-2.559996 121.912686-132.209557 121.912686-306.403045C907.091822 305.778975 783.415583 245.704408 778.181814 243.201301L778.181814 243.201301 778.181814 243.201301 778.181814 243.201301zM926.775344 103.027313c-22.015963-14.16531-51.199915-7.736876-65.59278 14.279087-14.335976 21.959075-8.02132 51.541247 13.880866 65.991001 5.119991 3.413328 127.430899 86.698522 127.430899 294.115065 0 207.871654-117.361582 360.504288-121.969574 363.690061-22.015963 14.677309-27.875509 44.202593-13.255089 66.218556 9.215985 13.767088 24.348404 21.21952 39.765267 21.21952 9.045318 0 18.318192-2.616885 26.453289-8.02132 6.712878-4.494215 164.522392-181.816586 164.522392-443.106817C1098.010614 215.610236 933.829555 107.464639 926.775344 103.027313L926.775344 103.027313 926.775344 103.027313 926.775344 103.027313z" fill="#ffffff"></path></g></g></svg>