<?xml version="1.0" standalone="no"?><!DOCTYPE svg PUBLIC "-//W3C//DTD SVG 1.1//EN" "http://www.w3.org/Graphics/SVG/1.1/DTD/svg11.dtd"><svg width="32" height="32" viewBox="0 0 32 32" version="1.1" xmlns="http://www.w3.org/2000/svg" xmlns:xlink="http://www.w3.org/1999/xlink"><defs><style type="text/css"><![CDATA[
@font-face {
  font-family: "ifont";
  src: url("//at.alicdn.com/t/font_1442373896_4754455.eot?#iefix") format("embedded-opentype"), url("//at.alicdn.com/t/font_1442373896_4754455.woff") format("woff"), url("//at.alicdn.com/t/font_1442373896_4754455.ttf") format("truetype"), url("//at.alicdn.com/t/font_1442373896_4754455.svg#ifont") format("svg");
}

]]></style></defs><g class="transform-group"><g transform="scale(0.03125, 0.03125)"><path d="M512.750083 960.175369c-247.24715 0-447.712835-200.463638-447.712835-447.712835 0-247.24715 200.466708-447.712835 447.712835-447.712835s447.712835 200.466708 447.712835 447.712835C960.462918 759.711731 759.996211 960.175369 512.750083 960.175369zM512.750083 148.69867c-200.575178 0-363.766934 163.188686-363.766934 363.763864S312.173882 876.229468 512.750083 876.229468 876.517017 713.037712 876.517017 512.462534 713.325261 148.69867 512.750083 148.69867zM500.45199 668.057265c-8.195659 8.198729-18.935258 12.298094-29.674856 12.298094s-21.479197-4.099365-29.674856-12.298094L301.19176 528.146749c-8.635681-8.632611-12.435217-20.054755-11.970636-31.342846 0.411369-10.165524 4.208858-20.24509 11.970636-28.004821 7.759731-7.764847 17.841344-11.562337 28.006867-11.973706 11.288091-0.461511 22.710234 3.334955 31.342846 11.973706l110.23566 110.22952L664.958694 384.850112c8.632611-8.635681 20.057825-12.435217 31.342846-11.970636 10.165524 0.414439 20.24816 4.208858 28.006867 11.970636 7.761778 7.759731 11.559267 17.844413 11.970636 28.006867 0.464581 11.288091-3.334955 22.710234-11.970636 31.345915L500.45199 668.057265z" fill="#009900"></path></g></g></svg>