<?xml version="1.0" standalone="no"?><!DOCTYPE svg PUBLIC "-//W3C//DTD SVG 1.1//EN" "http://www.w3.org/Graphics/SVG/1.1/DTD/svg11.dtd"><svg width="200" height="200" viewBox="0 0 200 200" version="1.1" xmlns="http://www.w3.org/2000/svg" xmlns:xlink="http://www.w3.org/1999/xlink"><defs><style type="text/css"><![CDATA[
@font-face {
  font-family: "ifont";
  src: url("//at.alicdn.com/t/font_1442373896_4754455.eot?#iefix") format("embedded-opentype"), url("//at.alicdn.com/t/font_1442373896_4754455.woff") format("woff"), url("//at.alicdn.com/t/font_1442373896_4754455.ttf") format("truetype"), url("//at.alicdn.com/t/font_1442373896_4754455.svg#ifont") format("svg");
}

]]></style></defs><g class="transform-group"><g transform="scale(0.1953125, 0.1953125)"><path d="M927.721472 423.964672C927.721472 189.810688 741.597184 0 512 0 282.404864 0 96.280576 189.810688 96.280576 423.964672c0 7.432192 0.718848 14.616576 1.093632 21.891072-0.342016 3.592192-1.093632 7.057408-1.093632 10.743808 0 260.947968 383.744 556.531712 383.744 556.531712s31.977472 24.451072 63.956992 0c31.977472-24.48384 383.741952-295.583744 383.741952-556.531712 0-3.6864-0.74752-7.151616-1.091584-10.743808C927.004672 438.581248 927.721472 431.396864 927.721472 423.964672zM512 587.071488c-88.315904 0-159.891456-73.0112-159.891456-163.106816 0-90.032128 71.575552-163.045376 159.891456-163.045376 88.317952 0 159.893504 73.013248 159.893504 163.045376C671.893504 514.060288 600.317952 587.071488 512 587.071488z" fill="#a9b7b7"></path></g></g></svg>