<?xml version="1.0" standalone="no"?><!DOCTYPE svg PUBLIC "-//W3C//DTD SVG 1.1//EN" "http://www.w3.org/Graphics/SVG/1.1/DTD/svg11.dtd"><svg width="37.625" height="32" viewBox="0 0 37.625 32" version="1.1" xmlns="http://www.w3.org/2000/svg" xmlns:xlink="http://www.w3.org/1999/xlink"><defs><style type="text/css"><![CDATA[
@font-face {
  font-family: "ifont";
  src: url("//at.alicdn.com/t/font_1442373896_4754455.eot?#iefix") format("embedded-opentype"), url("//at.alicdn.com/t/font_1442373896_4754455.woff") format("woff"), url("//at.alicdn.com/t/font_1442373896_4754455.ttf") format("truetype"), url("//at.alicdn.com/t/font_1442373896_4754455.svg#ifont") format("svg");
}

]]></style></defs><g class="transform-group"><g transform="scale(0.03125, 0.03125)"><path d="M605.486974 0.077787c-175.182226-4.004165-330.343626 147.15307-326.33946 320.333213 0 64.066643 45.046858 169.175978 112.116624 276.287396 68.070808 107.111418 118.122872 178.18535 174.181184 253.263446 10.010413 13.013537 23.02395 20.020826 40.041652 20.020826 16.016661 0 31.03228-8.00833 40.041652-20.020826 56.058312-75.078097 107.111418-146.152028 174.181184-253.263446 67.069766-107.111418 112.116624-212.220753 112.116624-276.287396C935.687594 147.230856 782.528277-3.926379 605.486974 0.077787L605.486974 0.077787 605.486974 0.077787 605.486974 0.077787zM628.510924 774.883745c-5.005206 7.007289-14.014578 11.011454-23.02395 11.011454-8.00833 0-18.018743-3.003124-22.022908-11.011454C433.307873 570.671322 339.209991 396.490137 339.209991 320.410999c0-72.074973 26.027074-134.139533 78.081221-185.192639 52.054147-51.053106 115.119748-77.080179 188.195762-77.080179 73.076014 0 136.141615 26.027074 188.195762 77.080179 53.055188 51.053106 79.082262 113.117666 79.082262 185.192639 0 39.04061-22.022908 98.102046-66.068725 179.186391C763.651498 580.681735 703.589021 671.776492 628.510924 774.883745L628.510924 774.883745 628.510924 774.883745 628.510924 774.883745zM603.484892 1024.00002c-114.118707 0-220.229084-10.010413-295.30718-30.031239-40.041652-10.010413-71.073932-22.022908-93.09684-37.038528-27.028115-17.017702-42.043734-39.04061-42.043734-63.065601 0-31.03228 12.012495-54.05623 37.038528-71.073932 28.029156-18.018743 73.076014-28.029156 135.140574-29.030197l1.001041 43.044775c-53.055188 0-91.094757 9.009372-112.116624 22.022908-12.012495 8.00833-18.018743 20.020826-18.018743 35.036445 0 17.017702 32.033321 40.041652 103.107253 59.061436C394.267262 971.945873 488.365143 982.099292 603.484892 982.099292c110.114542 0 212.220753-11.011454 283.294685-29.030197 69.071849-17.017702 101.10517-40.041652 101.10517-59.061436 0-8.00833-4.004165-16.016661-13.013537-25.026032-10.010413-10.010413-42.043734-36.037486-111.115583-36.037486l-3.003124 0-1.001041-43.044775c31.03228 0 60.062477 4.004165 85.08851 13.013537 25.026032 9.009372 45.046858 21.021867 60.062477 36.037486 17.017702 17.017702 26.027074 35.036445 26.027074 55.057271 0 24.024991-14.014578 46.047899-41.042693 63.065601-22.022908 15.015619-53.055188 27.028115-93.09684 37.038528C822.569928 1013.989607 718.60464 1024.00002 603.484892 1024.00002L603.484892 1024.00002 603.484892 1024.00002 603.484892 1024.00002zM367.239147 813.924355c1.001041 12.012495-8.00833 22.022908-20.020826 23.02395l-32.033321 2.002083c-12.012495 0-22.022908-9.009372-22.022908-20.020826-1.001041-12.012495 8.00833-22.022908 20.020826-23.02395l32.033321-2.002083C356.227693 793.903529 367.239147 802.912901 367.239147 813.924355L367.239147 813.924355 367.239147 813.924355zM911.662603 813.924355c-1.001041 12.012495-11.011454 21.021867-22.022908 20.020826l-32.033321-1.001041c-12.012495 0-21.021867-10.010413-21.021867-22.022908 1.001041-12.012495 10.010413-21.021867 22.022908-20.020826l32.033321 1.001041C902.653231 791.901447 911.662603 801.91186 911.662603 813.924355L911.662603 813.924355 911.662603 813.924355zM517.824359 332.852512c0-46.476917 37.610551-84.087468 84.087468-84.087468 46.476917 0 84.087468 37.610551 84.087468 84.087468s-37.610551 84.087468-84.087468 84.087468C555.43491 416.939981 517.824359 379.329429 517.824359 332.852512L517.824359 332.852512zM517.824359 332.852512" fill="#eb4f38"></path></g></g></svg>