<?xml version="1.0" standalone="no"?><!DOCTYPE svg PUBLIC "-//W3C//DTD SVG 1.1//EN" "http://www.w3.org/Graphics/SVG/1.1/DTD/svg11.dtd"><svg width="200" height="200" viewBox="0 0 200 200" version="1.1" xmlns="http://www.w3.org/2000/svg" xmlns:xlink="http://www.w3.org/1999/xlink"><defs><style type="text/css"><![CDATA[
@font-face {
  font-family: "ifont";
  src: url("//at.alicdn.com/t/font_1442373896_4754455.eot?#iefix") format("embedded-opentype"), url("//at.alicdn.com/t/font_1442373896_4754455.woff") format("woff"), url("//at.alicdn.com/t/font_1442373896_4754455.ttf") format("truetype"), url("//at.alicdn.com/t/font_1442373896_4754455.svg#ifont") format("svg");
}

]]></style></defs><g class="transform-group"><g transform="scale(0.1953125, 0.1953125)"><path d="M510.465041 71.466682c-243.016803 0-440.021665 197.004863-440.021665 440.021665s197.004863 440.021665 440.021665 440.021665 440.021665-197.004863 440.021665-440.021665S753.481843 71.466682 510.465041 71.466682zM510.465041 903.288754c-216.385259 0-391.800407-175.415149-391.800407-391.800407s175.415149-391.800407 391.800407-391.800407 391.800407 175.415149 391.800407 391.800407S726.850299 903.288754 510.465041 903.288754zM700.453093 723.437573c0 10.220782-2.043542 19.723204-6.131651 28.513404-4.087085 8.786107-9.707083 16.554024-16.863063 23.296589-7.15291 6.746658-15.531741 12.060687-25.13547 15.942087-9.606799 3.882424-19.928888 5.824659-30.964222 5.824659L403.694295 797.014312c-11.035334 0-21.357424-1.942235-30.964222-5.824659-9.603729-3.882424-17.98256-9.196453-25.139563-15.942087-7.15291-6.742565-12.771885-14.510482-16.859993-23.296589-4.086062-8.7902-6.130627-18.292622-6.130627-28.513404L324.599889 299.773458c0-10.218736 2.043542-19.824511 6.130627-28.816303 4.088108-8.994861 9.708106-16.863063 16.859993-23.606651 7.15598-6.745634 15.535835-12.059664 25.139563-15.942087 9.606799-3.882424 19.928888-5.825682 30.964222-5.825682l217.664392 0c11.035334 0 21.357424 1.943258 30.964222 5.825682 9.603729 3.882424 17.98256 9.196453 25.13547 15.942087 7.15598 6.743588 12.775978 14.611789 16.863063 23.606651 4.087085 8.991792 6.131651 18.597567 6.131651 28.816303L700.453093 723.437573 700.453093 723.437573zM650.789996 329.204767 373.651049 329.204767l0 364.189559 277.138948 0L650.789996 329.204767 650.789996 329.204767zM512.218988 710.563358c-8.584516 0-16.043395 3.064802-22.379707 9.196453-6.336312 6.130627-9.502421 13.693884-9.502421 22.685675 0 8.584516 3.166109 16.042371 9.502421 22.378683 6.336312 6.336312 13.795191 9.505491 22.379707 9.505491 8.993838 0 16.554024-3.169179 22.687722-9.505491 6.131651-6.336312 9.196453-13.794168 9.196453-22.378683 0-8.991792-3.064802-16.555048-9.196453-22.685675C528.773012 713.629183 521.213849 710.563358 512.218988 710.563358L512.218988 710.563358zM561.269124 277.088806c0-3.270487-1.02126-5.824659-3.064802-7.66354-2.043542-1.841951-4.291746-2.759857-6.742565-2.759857l-77.869508 0c-2.043542 0-4.188392 0.917906-6.436596 2.759857-2.248204 1.838881-3.371794 4.393054-3.371794 7.66354 0 3.270487 1.022283 5.824659 3.064802 7.66354 2.043542 1.838881 4.29277 2.759857 6.743588 2.759857l77.869508 0c2.450818 0 4.699022-0.920976 6.742565-2.759857C560.247864 282.913465 561.269124 280.359292 561.269124 277.088806L561.269124 277.088806zM561.269124 277.088806" fill="#232f3d"></path></g></g></svg>