<?xml version="1.0" standalone="no"?><!DOCTYPE svg PUBLIC "-//W3C//DTD SVG 1.1//EN" "http://www.w3.org/Graphics/SVG/1.1/DTD/svg11.dtd"><svg width="16" height="16" viewBox="0 0 16 16" version="1.1" xmlns="http://www.w3.org/2000/svg" xmlns:xlink="http://www.w3.org/1999/xlink"><defs><style type="text/css"><![CDATA[
@font-face {
  font-family: "ifont";
  src: url("//at.alicdn.com/t/font_1442373896_4754455.eot?#iefix") format("embedded-opentype"), url("//at.alicdn.com/t/font_1442373896_4754455.woff") format("woff"), url("//at.alicdn.com/t/font_1442373896_4754455.ttf") format("truetype"), url("//at.alicdn.com/t/font_1442373896_4754455.svg#ifont") format("svg");
}

]]></style></defs><g class="transform-group"><g transform="scale(0.015625, 0.015625)"><path d="M511.999488 64.633043c-246.967788 0-447.185832 200.203718-447.185832 447.185832 0 246.966765 200.218044 447.185832 447.185832 447.185832S959.186344 758.786663 959.186344 511.819898C959.186344 264.836761 758.967276 64.633043 511.999488 64.633043zM511.999488 920.102698c-225.501894 0-408.297127-182.795233-408.297127-408.2828 0-225.502917 182.795233-408.311453 408.297127-408.311453 225.502917 0 408.297127 182.808536 408.297127 408.311453C920.296615 737.307466 737.502405 920.102698 511.999488 920.102698zM721.174532 612.809987 531.43719 505.274832 531.43719 229.886761c0-5.373381-4.353145-9.726525-9.711176-9.726525l-19.452028 0c-5.358031 0-9.711176 4.353145-9.711176 9.726525L492.56281 521.531074c0 1.9934 0.601704 3.845585 1.629103 5.387707 0.832971 1.697665 2.166339 3.172249 3.937682 4.175089l203.889667 115.556852c4.663206 2.651386 10.598382 1.006933 13.249769-3.669576l9.577123-16.907065C727.480144 621.396549 725.838761 615.459327 721.174532 612.809987z" fill="#FF9900"></path></g></g></svg>