<?xml version="1.0" standalone="no"?><!DOCTYPE svg PUBLIC "-//W3C//DTD SVG 1.1//EN" "http://www.w3.org/Graphics/SVG/1.1/DTD/svg11.dtd"><svg class="icon" style="" viewBox="0 0 1024 1024" version="1.1" xmlns="http://www.w3.org/2000/svg" p-id="5009" xmlns:xlink="http://www.w3.org/1999/xlink" width="64" height="64"><defs><style type="text/css"><![CDATA[

]]></style></defs><path d="M612.570605 19.014313c-2.535721-0.537533-5.049942-0.828517-7.569895-0.93459-22.649483-0.86722-42.470826 14.619459-47.033405 36.866151-2.51422 12.07227-0.173444 24.41259 6.635305 34.748988 6.785814 10.32493 17.183849 17.380228 29.267587 19.844278 97.276239 20.079359 181.025285 76.940297 235.797729 160.105941 54.755243 83.200046 73.842675 182.58198 53.824953 279.852485-2.51422 12.112406-0.173444 24.425491 6.635305 34.738954 6.787248 10.32493 17.189583 17.36876 29.27332 19.865779 2.537155 0.504564 5.101545 0.81275 7.587097 0.93029 9.692792 0.368389 19.065931-2.267672 27.173359-7.59283 10.319197-6.797282 17.374494-17.206784 19.865779-29.279054C1025.726928 317.121412 863.59843 70.752205 612.570605 19.014313L612.570605 19.014313 612.570605 19.014313zM692.148397 713.323233c2.7321 1.786042 63.731324 40.9471 110.597019 89.084239 17.649711 18.208745 47.208282 48.674672 46.429935 84.017096-0.660807 24.144541-14.284039 48.356452-41.669544 73.917213-6.808749 6.685475-67.807973 63.65822-165.398131 63.65822-26.731865 0-54.190475-4.244359-81.62615-12.598336-28.826093-8.735267-58.14385-22.235224-87.047348-40.052645-114.1132-67.398015-202.185443-154.175879-285.811215-281.45935-143.744876-218.758655-147.871694-406.116793-147.210887-441.426249 0.240815-162.957015 135.962834-227.058162 151.433745-233.843976 21.287733-9.871969 39.889235-14.619459 57.022915-14.619459 8.203467 0 16.064347 1.108034 23.331791 3.33127 14.96778 4.541077 35.740915 16.305162 49.699567 46.547475 19.042996 41.037405 37.056796 99.863563 49.358413 161.45049 12.93949 63.914802-22.896031 81.855497-57.556147 99.197023l-1.371784 0.59917c0 0-61.317443 25.582262-72.101068 30.023-10.594413 4.417803-16.115951 16.355332-12.497996 27.267965 24.72651 74.91344 62.488548 152.597683 109.157864 224.650015 45.913903 70.904162 100.518637 136.331223 157.878405 189.301857 4.103884 3.734061 9.373139 5.834023 14.944846 5.834023l1.874914-0.100339c6.030401-0.487363 11.719649-3.539116 15.505313-8.394112 9.321536-11.987699 23.622775-29.256119 38.712397-43.62473 28.60678-27.200594 54.481459-40.409567 79.084695-40.409567 6.737078 0 13.426853 0.990494 19.872947 2.957147C670.932335 700.522785 680.916111 705.89238 692.148397 713.323233L692.148397 713.323233 692.148397 713.323233zM498.043147 397.986416c-12.110973-2.51422-22.509007-9.540849-29.296255-19.854312-6.835984-10.32493-9.17676-22.678151-6.685475-34.78339 4.637116-22.223757 24.40829-37.727637 47.034838-36.820281 2.51422 0.071671 5.055675 0.374123 7.59283 0.900188 107.28295 22.117684 176.578813 127.446881 154.489798 234.774266-2.469784 12.032135-9.496413 22.418702-19.821343 29.267587-8.130363 5.307957-17.547938 7.933984-27.167625 7.591397-2.491285-0.133308-5.02844-0.418559-7.569895-0.951791-12.128174-2.456883-22.554877-9.535115-29.340691-19.871513-6.781514-10.291962-9.126591-22.603613-6.635305-34.710286 5.710749-27.778263 0.290984-56.144228-15.380606-79.890277C549.640563 419.936389 525.792741 403.704331 498.043147 397.986416L498.043147 397.986416 498.043147 397.986416zM546.079946 253.189409c-24.951557-5.174649-41.06034-29.643143-35.937294-54.577499 4.59268-22.273926 24.362421-37.789274 47.017637-36.910587 2.486985 0.11324 5.051375 0.404225 7.587097 0.941757 86.828034 17.906293 161.523594 68.625023 210.43908 142.893424 48.842382 74.219664 65.902957 162.906845 47.99093 249.734879-2.491285 12.105239-9.546583 22.531942-19.871513 29.279054-8.124629 5.358127-17.476267 7.984154-27.14039 7.602864-2.519954-0.111807-5.07861-0.414259-7.620065-0.951791-24.89422-5.111579-41.031672-29.597274-35.902892-54.576065 12.912255-62.650525 0.610637-126.701502-34.687351-180.314308C662.657196 302.719833 608.763439 266.095931 546.079946 253.189409L546.079946 253.189409zM546.079946 253.189409" p-id="5010" fill="#fff"></path></svg>