<?xml version="1.0" standalone="no"?><!DOCTYPE svg PUBLIC "-//W3C//DTD SVG 1.1//EN" "http://www.w3.org/Graphics/SVG/1.1/DTD/svg11.dtd"><svg width="32" height="32" viewBox="0 0 32 32" version="1.1" xmlns="http://www.w3.org/2000/svg" xmlns:xlink="http://www.w3.org/1999/xlink"><defs><style type="text/css"><![CDATA[
@font-face {
  font-family: "ifont";
  src: url("//at.alicdn.com/t/font_1442373896_4754455.eot?#iefix") format("embedded-opentype"), url("//at.alicdn.com/t/font_1442373896_4754455.woff") format("woff"), url("//at.alicdn.com/t/font_1442373896_4754455.ttf") format("truetype"), url("//at.alicdn.com/t/font_1442373896_4754455.svg#ifont") format("svg");
}

]]></style></defs><g class="transform-group"><g transform="scale(0.03125, 0.03125)"><path d="M921.6 742.4C921.6 896 851.2 896 512 896c-339.2 0-409.6 0-409.6-153.6C102.4 576 288 243.2 512 243.2 736 243.2 921.6 576 921.6 742.4L921.6 742.4 921.6 742.4zM512 313.6c-96 0-172.8 76.8-172.8 172.8 0 96 76.8 172.8 172.8 172.8 96 0 172.8-76.8 172.8-172.8C684.8 390.4 608 313.6 512 313.6L512 313.6 512 313.6zM153.6 441.6c70.4-115.2 192-236.8 358.4-236.8 166.4 0 300.8 134.4 358.4 236.8 32 51.2 89.6 44.8 115.2 0 19.2-32 70.4-320-473.6-320-544 0-492.8 294.4-473.6 320C76.8 492.8 140.8 467.2 153.6 441.6L153.6 441.6 153.6 441.6z" fill="#868686"></path></g></g></svg>