<?xml version="1.0" standalone="no"?><!DOCTYPE svg PUBLIC "-//W3C//DTD SVG 1.1//EN" "http://www.w3.org/Graphics/SVG/1.1/DTD/svg11.dtd"><svg class="icon" style="" viewBox="0 0 1024 1024" version="1.1" xmlns="http://www.w3.org/2000/svg" p-id="1495" xmlns:xlink="http://www.w3.org/1999/xlink" width="64" height="64"><defs><style type="text/css"><![CDATA[

]]></style></defs><path d="M788.345885 956.555935 236.569974 956.555935c-94.096075 0-170.649612-76.553537-170.649612-170.649612L65.920362 234.130412c0-94.096075 76.553537-170.649612 170.649612-170.649612l551.775912 0c94.096075 0 170.649612 76.553537 170.649612 170.649612l0 551.775912C958.994474 880.002398 882.44196 956.555935 788.345885 956.555935zM236.569974 73.713862c-88.453564 0-160.41655 71.961962-160.41655 160.41655l0 551.775912c0 88.453564 71.961962 160.41655 160.41655 160.41655l551.775912 0c88.453564 0 160.41655-71.961962 160.41655-160.41655L948.762435 234.130412c0-88.453564-71.961962-160.41655-160.41655-160.41655L236.569974 73.713862zM664.770406 809.41576c-34.43937 0-66.313312-12.117992-97.137341-23.835871-4.612041-1.753947-9.225105-3.507894-13.847379-5.222955-61.539588-22.479991-127.647215-67.068512-186.123025-125.544321S264.59833 530.2302 242.110153 468.667076c-1.705851-4.599761-3.460822-9.212826-5.213745-13.82589-11.717879-30.824029-23.834848-62.696947-23.834848-97.135294 0-20.990057 7.28287-49.809429 19.006889-75.210959 13.658068-29.591969 31.242562-50.463322 49.51574-58.769498l0.149403-0.064468c14.173814-5.9055 44.106544-13.038968 60.018955-13.038968 3.230578 0 7.245008 0 11.007705 1.480724 7.680936 2.841721 21.189601 24.427342 55.151088 88.040149 4.27742 8.012488 7.656377 14.341636 9.555633 17.665335 1.597381 2.758834 3.703345 5.782703 5.933129 8.984628 6.42534 9.225105 13.70821 19.681248 13.70821 30.913057 0 15.461133-20.032242 31.735795-41.23924 48.965202-15.172561 12.325723-34.054607 27.666106-34.054607 36.100196 0 7.753591 6.340405 18.34788 11.434423 26.860764 1.445932 2.416026 2.812045 4.697999 4.015454 6.865361 41.912575 74.762751 93.954859 126.805034 168.735006 168.727843 2.148943 1.194198 4.430916 2.559289 6.845918 4.00522 8.512884 5.095042 19.108197 11.434423 26.861788 11.434423 8.43409 0 23.774473-18.882046 36.100196-34.054607 17.229406-21.208021 33.503045-41.23924 48.965202-41.23924 11.232832 0 21.688975 7.28287 30.916127 13.70821 3.200902 2.229784 6.224772 4.334725 9.008164 5.947456 3.300162 1.885953 9.632381 5.265934 17.649985 9.546424 63.617923 33.963533 85.196381 47.469128 88.031962 55.150064 1.477654 3.761674 1.477654 7.774057 1.477654 11.002588 0 15.911388-7.132444 45.845141-13.037944 60.018955l-0.064468 0.149403c-8.305153 18.272155-29.17753 35.857672-58.769498 49.51574C714.579835 802.13289 685.760462 809.41576 664.770406 809.41576zM285.747 233.073336c-35.639708 16.277732-62.453401 86.797855-62.453401 124.631532 0 32.559557 11.253298 62.160735 23.167652 93.499487 1.763157 4.638647 3.527336 9.277294 5.251607 13.926174 45.095058 123.446543 182.186366 260.537851 305.60835 305.623699 4.671393 1.732457 9.311063 3.496637 13.947663 5.259794 31.339776 11.915377 60.941977 23.168676 93.501534 23.168676 37.833677 0 108.3538-26.811646 124.632555-62.451354 5.508457-13.269211 12.218276-41.666982 12.218276-56.006572 0-2.50096 0-5.336542-0.783853-7.296173l-0.037862-0.095167c-0.743944-1.205455-5.205559-6.074346-31.664164-21.406542-16.96437-9.830903-36.989449-20.521383-51.611471-28.328185-8.089235-4.319375-14.478759-7.730055-17.931395-9.702989-3.178389-1.839905-6.374174-4.064572-9.755178-6.4192-7.990998-5.564739-17.046235-11.873422-25.066909-11.873422-10.591219 0-27.464515 20.770046-41.022299 37.458123-16.493649 20.302395-30.738072 37.835723-44.043099 37.835723-10.582009 0-22.022573-6.845918-32.116465-12.887518-2.343371-1.401929-4.555759-2.726088-6.579859-3.849678-76.535117-42.907229-129.786948-96.160083-172.682921-172.676781-1.133823-2.040473-2.457981-4.253884-3.860934-6.597255-6.039553-10.093892-12.886495-21.533432-12.886495-32.115442 0-13.305027 17.533328-27.549449 37.835723-44.043099 16.689101-13.557784 37.459147-30.43108 37.459147-41.022299 0-8.018627-6.307659-17.074887-11.871375-25.064862-2.355651-3.38305-4.581342-6.577812-6.40692-9.731642-1.986237-3.476171-5.395894-9.862625-9.712199-17.947767-7.80578-14.622022-18.497283-34.647101-28.330232-51.614541-15.337313-26.466792-20.206204-30.927383-21.410636-31.671327l-0.095167-0.037862c-1.958608-0.783853-4.79419-0.783853-7.29515-0.783853C327.410911 220.854037 299.016211 227.564879 285.747 233.073336z" p-id="1496" fill="#FFFFFF"></path></svg>