<?xml version="1.0" standalone="no"?><!DOCTYPE svg PUBLIC "-//W3C//DTD SVG 1.1//EN" "http://www.w3.org/Graphics/SVG/1.1/DTD/svg11.dtd"><svg class="icon" style="" viewBox="0 0 1024 1024" version="1.1" xmlns="http://www.w3.org/2000/svg" p-id="5816" xmlns:xlink="http://www.w3.org/1999/xlink" width="64" height="64"><defs><style type="text/css"><![CDATA[

]]></style></defs><path d="M945.556928 473.966779 211.998857 473.966779l187.31927-180.329065c4.795213-4.796236 4.795213-12.570293 0-17.366529l-37.626969-37.626969c-4.796236-4.795213-12.570293-4.795213-17.366529 0L108.517017 465.655486c-0.272199 0.229221-0.541329 0.464581-0.797156 0.721431l-1.258667 1.258667-36.366256 35.009352c-2.567475 2.568499-3.746324 5.990434-3.564175 9.351995-0.188288 3.368724 0.99056 6.79987 3.563152 9.372461l36.444027 35.084053 1.182942 1.182942c0.2415 0.2415 0.496304 0.462534 0.75213 0.680499l235.851613 227.050156c4.796236 4.797259 12.570293 4.797259 17.366529 0l37.626969-37.626969c4.795213-4.795213 4.795213-12.56927 0-17.365506L213.755874 551.73805l731.801055 0c6.782473 0 12.279674-5.498224 12.279674-12.279674l0-53.211922C957.836603 479.465003 952.339402 473.966779 945.556928 473.966779z" p-id="5817" fill="#d81e06" class="selected"></path></svg>