<?xml version="1.0" standalone="no"?><!DOCTYPE svg PUBLIC "-//W3C//DTD SVG 1.1//EN" "http://www.w3.org/Graphics/SVG/1.1/DTD/svg11.dtd"><svg class="icon" style="" viewBox="0 0 1024 1024" version="1.1" xmlns="http://www.w3.org/2000/svg" p-id="3295" xmlns:xlink="http://www.w3.org/1999/xlink" width="64" height="64"><defs><style type="text/css"><![CDATA[

]]></style></defs><path d="M378.423596 522.724848c-0.461576 0.58699-0.924444 1.202424-1.131313 1.943273l-35.69002 130.090667c-2.082909 7.572687 0.050424 15.734949 5.688889 21.487192 4.218828 4.098586 9.777131 6.348283 15.696162 6.348283 1.954909 0 3.913697-0.232727 5.842747-0.742141l129.922586-35.229737c0.208162 0 0.30901 0.182303 0.46804 0.182303 1.49204 0 2.958222-0.539152 4.06497-1.665293l347.420444-345.345293c10.318869-10.272323 15.979313-24.26699 15.979313-39.491232 0-17.252848-7.360646-34.496646-20.249859-47.27596l-32.810667-32.672323c-12.867232-12.812929-30.237737-20.143838-47.583677-20.143838-15.309576 0-29.385697 5.626828-39.730424 15.873293L378.940768 521.52501C378.581333 521.853414 378.682182 522.342141 378.423596 522.724848M816.709818 265.973657l-34.508283 34.280727-55.942465-56.499717 34.018263-33.821737c5.376-5.373414 15.79701-4.588606 21.974626 1.572202l32.832646 32.672323c3.426263 3.400404 5.379879 7.928242 5.379879 12.404364C820.445091 260.253737 819.131475 263.58303 816.709818 265.973657M440.210101 528.14998l250.692525-249.245737 55.969616 56.537212L496.646465 584.197172 440.210101 528.14998 440.210101 528.14998zM394.536081 629.202747l18.115232-66.107475 48.324525 48.046545L394.536081 629.202747 394.536081 629.202747zM838.715475 402.827636c-13.151677 0-23.933414 10.631758-23.985131 23.88299l0 321.976889c0 16.884364-13.791677 30.595879-30.801455 30.595879L236.073374 779.283394c-16.985212 0-30.832485-13.711515-30.832485-30.595879L205.240889 223.160889c0-16.898586 13.847273-30.626909 30.832485-30.626909l352.850747 0c13.222788 0 23.955394-10.675717 23.955394-23.828687 0-13.124525-10.731313-23.818343-23.955394-23.818343L232.418263 144.886949c-41.404768 0-75.103677 33.476525-75.103677 74.665374l0 532.769616c0 41.188848 33.698909 74.652444 75.103677 74.652444l555.134707 0c41.435798 0 75.115313-33.463596 75.115313-74.652444L862.668283 426.559354C862.617859 413.459394 851.86198 402.827636 838.715475 402.827636" p-id="3296" fill="#fff"></path></svg>