<?xml version="1.0" standalone="no"?><!DOCTYPE svg PUBLIC "-//W3C//DTD SVG 1.1//EN" "http://www.w3.org/Graphics/SVG/1.1/DTD/svg11.dtd"><svg width="200" height="200" viewBox="0 0 200 200" version="1.1" xmlns="http://www.w3.org/2000/svg" xmlns:xlink="http://www.w3.org/1999/xlink"><defs><style type="text/css"><![CDATA[
@font-face {
  font-family: "ifont";
  src: url("//at.alicdn.com/t/font_1442373896_4754455.eot?#iefix") format("embedded-opentype"), url("//at.alicdn.com/t/font_1442373896_4754455.woff") format("woff"), url("//at.alicdn.com/t/font_1442373896_4754455.ttf") format("truetype"), url("//at.alicdn.com/t/font_1442373896_4754455.svg#ifont") format("svg");
}

]]></style></defs><g class="transform-group"><g transform="scale(0.1953125, 0.1953125)"><path d="M512.851902 54.118572c-223.425605 0-404.546709 181.122127-404.546709 404.547733 0 223.424582 181.122127 404.546709 404.546709 404.546709s404.547733-181.122127 404.547733-404.546709C917.399635 235.240699 736.277508 54.118572 512.851902 54.118572zM513.873162 824.89122c-202.25954 0-366.224916-163.963329-366.224916-366.224916S311.613622 92.441389 513.873162 92.441389c202.260563 0 366.225939 163.964352 366.225939 366.224916S716.134749 824.89122 513.873162 824.89122zM407.547555 313.228911c-13.047154-46.378284-26.841322-80.45745-41.315988-102.202707l-76.108399 26.094308c21.745257 42.063001 36.966936 76.108399 45.665039 102.202707C370.580618 327.737346 394.500401 319.039243 407.547555 313.228911zM629.349173 461.096656l91.330078 0 0-63.061244-91.330078 0 0-100.028181 108.726284 0 0-60.886719L440.16544 237.120512l0 60.886719 119.598912 0 0 319.655274-41.315988 0L518.448364 419.780669c0-17.396205 2.174526-31.156604 6.523577-41.315988 0-2.88777 0-5.062296 0-6.523577 8.698103-2.88777-16.682961-4.349051-76.108399-4.349051l0 250.070452-39.141462 0 0 58.712193 337.051479 0 0-58.712193-117.424386 0L629.349173 461.096656zM416.245657 480.667388c-2.921539 2.921539-7.270591 7.984858-13.047154 15.22168-7.270591 10.158361-14.508435 18.856463-21.745257 26.094308l0-156.565848L244.459153 365.417527l0 60.886719 67.410296 0 0 126.122489c1.427512 30.443359-8.698103 55.824423-30.443359 76.108399 18.823718 33.331129 33.331129 56.537667 43.490513 69.584821 2.88777-4.349051 13.047154-17.396205 30.443359-39.141462 47.839565-63.774489 78.282924-105.090477 91.330078-123.947963C432.180582 510.396479 422.022221 492.287029 416.245657 480.667388z" fill="#232f3d"></path></g></g></svg>