<?xml version="1.0" standalone="no"?><!DOCTYPE svg PUBLIC "-//W3C//DTD SVG 1.1//EN" "http://www.w3.org/Graphics/SVG/1.1/DTD/svg11.dtd"><svg width="32" height="32" viewBox="0 0 32 32" version="1.1" xmlns="http://www.w3.org/2000/svg" xmlns:xlink="http://www.w3.org/1999/xlink"><defs><style type="text/css"><![CDATA[
@font-face {
  font-family: "ifont";
  src: url("//at.alicdn.com/t/font_1442373896_4754455.eot?#iefix") format("embedded-opentype"), url("//at.alicdn.com/t/font_1442373896_4754455.woff") format("woff"), url("//at.alicdn.com/t/font_1442373896_4754455.ttf") format("truetype"), url("//at.alicdn.com/t/font_1442373896_4754455.svg#ifont") format("svg");
}

]]></style></defs><g class="transform-group"><g transform="scale(0.03125, 0.03125)"><path d="M931.401022 740.708935l-90.050945-79.817883c0 0-26.605961-20.466124-26.605961-55.94108 0-35.474956 0-148.038638 0-148.038638s4.093225-71.631434-17.055444-118.020974c0 0-30.699186-83.911108-121.432677-134.393873l-84.593654-38.885636-0.434905-0.049119L591.227436 89.416496c-15.462157-12.975523-45.63741-21.785166-80.329537-21.785166s-64.86738 8.809643-80.329537 21.785166l0 76.145238-0.434905 0.049119-84.593654 38.885636c-90.733491 50.482765-121.432677 134.393873-121.432677 134.393873-21.148669 46.38954-17.055444 118.020974-17.055444 118.020974s0 112.563682 0 148.038638c0 35.474956-26.605961 55.94108-26.605961 55.94108l-90.050945 79.817883c-36.839023 23.876804-22.171975 88.345094-22.171975 88.345094l441.232237 0 2.882654 0 441.232237 0C953.572998 829.054029 968.240045 764.585739 931.401022 740.708935zM511.317455 955.603237c73.701582 0 133.88836-52.272527 137.620357-118.020974L373.696074 837.582263C377.428072 903.329686 437.615872 955.603237 511.317455 955.603237z" fill="#ffffff"></path></g></g></svg>