<?xml version="1.0" standalone="no"?><!DOCTYPE svg PUBLIC "-//W3C//DTD SVG 1.1//EN" "http://www.w3.org/Graphics/SVG/1.1/DTD/svg11.dtd"><svg width="32" height="32" viewBox="0 0 32 32" version="1.1" xmlns="http://www.w3.org/2000/svg" xmlns:xlink="http://www.w3.org/1999/xlink"><defs><style type="text/css"><![CDATA[
@font-face {
  font-family: "ifont";
  src: url("//at.alicdn.com/t/font_1442373896_4754455.eot?#iefix") format("embedded-opentype"), url("//at.alicdn.com/t/font_1442373896_4754455.woff") format("woff"), url("//at.alicdn.com/t/font_1442373896_4754455.ttf") format("truetype"), url("//at.alicdn.com/t/font_1442373896_4754455.svg#ifont") format("svg");
}

]]></style></defs><g class="transform-group"><g transform="scale(0.03125, 0.03125)"><path d="M527.519973 163.736155c43.078121 0 85.060281 8.167007 124.780935 24.27487 41.104163 16.668635 78.000492 41.173748 109.660562 72.834842s56.166207 68.556399 72.834842 109.660562c16.10684 39.720653 24.27487 81.702813 24.27487 124.779911s-8.167007 85.060281-24.27487 124.779911c-16.668635 41.105187-41.173748 78.000492-72.834842 109.660562-31.66007 31.661094-68.555375 56.166207-109.660562 72.834842-39.71963 16.10684-81.702813 24.273846-124.780935 24.273846-43.080168 0-85.063351-8.165983-124.784004-24.273846-41.104163-16.667611-77.999468-41.172725-109.659539-72.833819-31.661094-31.662117-56.166207-68.557422-72.834842-109.661585-16.10684-39.720653-24.27487-81.703837-24.27487-124.780935 0-43.078121 8.167007-85.060281 24.27487-124.779911 16.668635-41.104163 41.173748-77.998445 72.834842-109.660562s68.556399-56.167231 109.660562-72.834842C442.457646 171.903162 484.440829 163.736155 527.519973 163.736155M527.519973 126.897132c-94.281293 0-188.56054 35.96512-260.493849 107.899452-143.865595 143.865595-143.865595 377.110847 0 520.979512 71.932286 71.934333 166.211533 107.897406 260.493849 107.897406 94.278223 0 188.558493-35.96512 260.491803-107.897406 143.864572-143.866618 143.864572-377.113917 0-520.979512C716.078467 162.863275 621.798197 126.897132 527.519973 126.897132L527.519973 126.897132zM528.024463 305.045531c-34.733059 0-62.678528 9.330506-83.789335 27.987425-21.113877 18.659989-33.815153 45.51052-38.107923 80.594573l47.480384 5.647627c4.117784-26.192545 12.746302-45.420469 25.929556-57.727773 13.18223-12.308327 29.611411-18.482957 49.27424-18.482957 20.369933 0 37.58399 6.833639 51.598168 20.410865 14.014178 13.57825 21.022803 29.390377 21.022803 47.348378 0 9.94142-2.407839 19.094894-7.182586 27.462468-4.77577 8.364505-15.199167 19.621896-31.18935 33.724079-15.987113 14.104229-27.065426 24.879644-33.1981 32.236192-8.365528 10.118452-14.4542 20.10592-18.219967 30.04734-5.126764 13.183254-7.709589 28.819372-7.709589 46.954405 0 3.064802 0.088004 7.665587 0.261966 13.84124l44.369533 0c0.353041-18.486026 1.620917-31.79924 3.854794-40.032762 2.235924-8.234545 5.692652-15.462157 10.295484-21.814842 4.598738-6.348592 14.453177-16.160051 29.477358-29.563316 22.382776-19.84293 37.44789-36.70497 45.157479-50.547233 7.708566-13.840216 11.565407-28.994358 11.565407-45.419446 0-28.381397-10.951423-52.605102-32.852222-72.621994C594.163813 315.073932 564.816414 305.045531 528.024463 305.045531L528.024463 305.045531zM527.659143 628.934223c-15.626909 0-28.29544 12.668531-28.29544 28.294416 0 15.626909 12.668531 28.29544 28.29544 28.29544 15.626909 0 28.294416-12.668531 28.294416-28.29544C555.953559 641.602753 543.286052 628.934223 527.659143 628.934223L527.659143 628.934223z" fill="#ffffff"></path></g></g></svg>